name processed_emg_signals
nRows=41
nColumns=7
 
endheader
time	LGLTMED	LRF	LADDLONG	LST	LTA	LGM
1.327	0.3577012516792816	0.2638440691744516	0.4641552174747558	0.1307251525006391	0.1527355789286935	0.7432935061646627
1.328	0.3545292079991136	0.2635782102019683	0.4667934995295015	0.1304634407353447	0.1525904318399138	0.7538178154831406
1.329	0.3513588709543992	0.2633038150974136	0.4695281782981089	0.1301736461443953	0.1524514844198309	0.7642243731695267
1.33	0.3481924783334911	0.2630210209865638	0.4723599150325603	0.1298556212341094	0.1523187887202799	0.7745043592692336
1.331	0.3450322593431582	0.2627299674760869	0.4752892513921549	0.1295092481241472	0.1521923746323663	0.7846490220650496
1.332	0.3418804325016178	0.2624307970093575	0.4783166064251266	0.1291344387611132	0.1520722490734556	0.794649690366399
1.333	0.338739203576433	0.2621236552244217	0.4814422736964199	0.1287311351108528	0.1519583952117326	0.8044977858112875
1.334	0.3356107635675537	0.2618086913113653	0.4846664185652919	0.1282993093294178	0.1518507717301772	0.8141848351515254
1.335	0.3324972867351787	0.2614860583661598	0.4879890756170348	0.1278389639123281	0.1517493121313876	0.8237024824892728
1.336	0.3294009286717066	0.2611559137373834	0.4914101462520396	0.1273501318213967	0.1516539240846908	0.8330425014311714
1.337	0.3263238244164639	0.2608184193627633	0.4949293964360779	0.126832876588107	0.1515644888166909	0.8421968071257662
1.338	0.323268086611828	0.2604737420918823	0.4985464546171706	0.126287292392336	0.1514808605467882	0.8511574681502072
1.339	0.3202358036985913	0.260122053991872	0.5022608098147672	0.1257135041151205	0.1514028659692581	0.8599167182132722
1.34	0.3172290381489144	0.2597635326328227	0.5060718098884253	0.1251116673639767	0.151330303783908	0.8684669676430865
1.341	0.3142498247346292	0.2593983613492473	0.5099786599942498	0.1244819684692582	0.1512629442774117	0.8768008146286391
1.342	0.3113001688294118	0.2590267294744547	0.5139804212371732	0.1238246244497988	0.1512005289573517	0.8849110561852981
1.343	0.3083820447441056	0.2586488325446825	0.5180760095276368	0.1231398829460553	0.1511427702408762	0.8927906988153955
1.344	0.305497394094955	0.2582648724700236	0.5222641946514696	0.1224280221187217	0.1510893511994284	0.9004329688366985
1.345	0.3026481242057096	0.257875057669693	0.526543599561644	0.121689350510925	0.1510399253607278	0.9078313223530456
1.346	0.2998361065445835	0.2574796031687762	0.5309126999014208	0.1209242068720003	0.1509941165688485	0.9149794548429908
1.347	0.2970631751973538	0.2570787306543278	0.5353698237682178	0.12013295994093	0.1509515189029669	0.9218713103437812
1.348	0.2943311253777819	0.2566726684889442	0.5399131517271494	0.1193160081875872	0.1509116966552045	0.928501090208676
1.349	0.2916417119763712	0.2562616516806776	0.5445407170828538	0.1184737795099535	0.1508741843678825	0.934863261415457
1.35	0.2889966481481263	0.2558459218089688	0.5492504064166497	0.1176067308854579	0.1508384869302865	0.9409525644032816
1.351	0.2863976039398039	0.2554257269070041	0.5540399603942665	0.1167153479744732	0.1508040797351859	0.9467640204149312
1.352	0.2838462049562917	0.255001321300868	0.5589069748499664	0.1158001446738566	0.1507704088953555	0.9522929383222332
1.353	0.2813440310657461	0.2545729654066024	0.5638489021502487	0.1148616626182959	0.150736891520735	0.957534920913759
1.354	0.278892615142407	0.2541409254856987	0.5688630528405951	0.1139004706274105	0.1507029160570973	0.9624858706250096
1.355	0.2764934418456898	0.2537054733593283	0.5739465975780301	0.1129171640969062	0.1506678426875811	0.9671419946921274
1.356	0.27414794643477	0.2532668860818928	0.5790965693507482	0.1119123643326065	0.1506310037986492	0.9714998097112534
1.357	0.2718575136173877	0.2528254455741304	0.5843098659854055	0.1108867178269079	0.1505917045123019	0.9755561455872072
1.358	0.269623476432509	0.252381438217221	0.5895832529407926	0.1098408954779114	0.1505492232862154	0.9793081488578368
1.359	0.2674471151666021	0.2519351544092467	0.5949133663855029	0.1087755917522213	0.1505028125834658	0.9827532853841272
1.36	0.2653296563037829	0.2514868880867834	0.6002967165559284	0.1076915237930241	0.1504516996134472	0.9858893424012788
1.361	0.263272271510719	0.2510369362144357	0.6057296913895142	0.1065894304756467	0.1503950871454221	0.9887144299313068
1.362	0.2612760766575727	0.2505855982455612	0.6112085604279904	0.1054700714135041	0.1503321543961888	0.9912269815622924
1.363	0.2593421308764075	0.2501331755576216	0.6167294789836374	0.1043342259176317	0.1502620579930041	0.9934257546024446
1.364	0.257471435658793	0.2496799708655992	0.6222884925608553	0.103182691913498	0.1501839330129028	0.9953098296197208
1.365	0.2556649339941559	0.2492262876169604	0.6278815415245426	0.1020162848189417	0.1500968940992638	0.9968786093800794
1.366	0.2539235095508957	0.2487724293714079	0.6335044660061862	0.1008358363872678	0.1500000366564329	0.9981318171996696
1.367	0.2522479859023901	0.2483186991687929	0.639153011036808	0.0996421935196011	0.1498924381229425	0.9990694947271735
